:FULLY-SPECIFIED
:FORCE-ALL-JOINTS-BE-3DOF
:DEGREES
102
root 7.35255 16.5909 -26.7583 -5.35154 6.78239 3.646
lfemur -9.82862 10.7809 -21.3429
ltibia 36.013 -0 0
lfoot -23.3866 -8.72307 -0.63843
ltoes 33.4107 -0 0
rfemur -77.5381 -24.6978 44.1938
rtibia 78.9312 -0 0
rfoot 6.68148 17.1775 3.31901
rtoes -20.7998 0 0
lowerback 11.85 -1.88333 -7.69615
upperback 3.36294 -3.45274 -0.567822
thorax -2.52498 -1.6509 4.54407
lowerneck -11.7672 -1.09559 0.0620081
upperneck -0.173215 -1.55095 2.25277
head 1.97976 -0.698431 0.650645
lclavicle -2.67321e-14 2.78849e-16 -1.15173e-29
lhumerus -41.3485 -20.0686 92.614
lradius 48.1108 -0 0
lwrist 13.9889 0 0
lhand 4.42038 6.0459 0.146695
lfingers 7.12502 -0 0
lthumb 29.7804 33.3103 0.0311926
rclavicle -2.67321e-14 2.78849e-16 -1.15173e-29
rhumerus -43.7047 -21.6422 -65.7305
rradius 71.8939 -0 0
rwrist -26.6781 0 0
rhand -27.865 -25.6888 0.0410642
rfingers 7.12502 -0 0
rthumb -1.25549 -55.6528 0.039644
103
root 7.36397 16.5882 -26.7447 -5.49625 6.891 3.69682
lfemur -9.7244 10.8679 -21.3431
ltibia 36.021 -0 0
lfoot -23.2316 -8.85677 -0.626987
ltoes 33.356 -0 0
rfemur -78.2262 -24.7949 44.587
rtibia 79.3801 -0 0
rfoot 7.06183 17.4603 3.25853
rtoes -21.2378 0 0
lowerback 12.0027 -1.93609 -7.73175
upperback 3.42691 -3.53738 -0.609614
thorax -2.53232 -1.695 4.52965
lowerneck -11.7872 -1.08381 0.0418636
upperneck -0.159985 -1.53429 2.29032
head 1.98832 -0.688913 0.666597
lclavicle -2.58915e-14 7.2389e-16 -1.13116e-29
lhumerus -41.3356 -20.1659 92.5446
lradius 48.2474 -0 0
lwrist 14.106 0 0
lhand 4.5842 6.07498 0.14407
lfingers 7.12502 -0 0
lthumb 29.9372 33.3168 0.0306344
rclavicle -2.58915e-14 7.2389e-16 -1.13116e-29
rhumerus -43.7347 -21.8164 -65.5237
rradius 72.2061 -0 0
rwrist -27.0509 0 0
rhand -27.9046 -25.7226 0.0403308
rfingers 7.12502 -0 0
rthumb -1.29369 -55.6865 0.0389359
104
root 7.37539 16.5856 -26.7311 -5.6409 6.99973 3.74737
lfemur -9.62015 10.955 -21.3433
ltibia 36.029 -0 0
lfoot -23.0766 -8.99044 -0.615183
ltoes 33.3012 -0 0
rfemur -78.9155 -24.8877 44.9817
rtibia 79.8291 -0 0
rfoot 7.44187 17.7427 3.19618
rtoes -21.6759 0 0
lowerback 12.1555 -1.98875 -7.76749
upperback 3.49095 -3.62198 -0.651504
thorax -2.53965 -1.7391 4.51523
lowerneck -11.8072 -1.07204 0.021715
upperneck -0.146744 -1.51764 2.32787
head 1.99689 -0.679398 0.68255
lclavicle -2.5051e-14 1.16893e-15 -1.10994e-29
lhumerus -41.3226 -20.2631 92.4751
lradius 48.384 -0 0
lwrist 14.2232 0 0
lhand 4.74802 6.10404 0.14136
lfingers 7.12502 -0 0
lthumb 30.0941 33.3233 0.0300585
rclavicle -2.5051e-14 1.16893e-15 -1.10994e-29
rhumerus -43.7654 -21.9904 -65.3165
rradius 72.5182 -0 0
rwrist -27.4237 0 0
rhand -27.9441 -25.7563 0.039574
rfingers 7.12502 -0 0
rthumb -1.33189 -55.7202 0.0382054
105
root 7.38682 16.5829 -26.7176 -5.78549 7.10859 3.79766
lfemur -9.51586 11.042 -21.3432
ltibia 36.037 -0 0
lfoot -22.9216 -9.12408 -0.603017
ltoes 33.2464 -0 0
rfemur -79.606 -24.9762 45.3779
rtibia 80.2781 -0 0
rfoot 7.82156 18.0247 3.13197
rtoes -22.1139 0 0
lowerback 12.3084 -2.04132 -7.80337
upperback 3.55506 -3.70653 -0.693493
thorax -2.54697 -1.78321 4.50082
lowerneck -11.8272 -1.06028 0.00156236
upperneck -0.133492 -1.50101 2.36543
head 2.00547 -0.669885 0.698504
lclavicle -2.42104e-14 1.61397e-15 -1.08807e-29
lhumerus -41.3095 -20.3604 92.4056
lradius 48.5206 -0 0
lwrist 14.3404 0 0
lhand 4.91183 6.1331 0.138568
lfingers 7.12502 -0 0
lthumb 30.2509 33.3297 0.0294649
rclavicle -2.42104e-14 1.61397e-15 -1.08807e-29
rhumerus -43.7968 -22.1644 -65.1089
rradius 72.8303 -0 0
rwrist -27.7965 0 0
rhand -27.9837 -25.79 0.038794
rfingers 7.12502 -0 0
rthumb -1.37009 -55.7539 0.0374523
106
root 7.39824 16.5802 -26.704 -5.93001 7.21758 3.84768
lfemur -9.41155 11.1291 -21.343
ltibia 36.045 -0 0
lfoot -22.7667 -9.25768 -0.59049
ltoes 33.1916 -0 0
rfemur -80.2976 -25.0604 45.7756
rtibia 80.727 -0 0
rfoot 8.20091 18.3062 3.06589
rtoes -22.5519 0 0
lowerback 12.4612 -2.0938 -7.83939
upperback 3.61924 -3.79103 -0.735581
thorax -2.55427 -1.82731 4.48641
lowerneck -11.8472 -1.04852 -0.0185943
upperneck -0.120229 -1.48438 2.40299
head 2.01404 -0.660374 0.71446
lclavicle -2.33698e-14 2.05901e-15 -1.06554e-29
lhumerus -41.2962 -20.4576 92.3359
lradius 48.6572 -0 0
lwrist 14.4576 0 0
lhand 5.07565 6.16216 0.135693
lfingers 7.12502 -0 0
lthumb 30.4077 33.3362 0.0288537
rclavicle -2.33698e-14 2.05901e-15 -1.06554e-29
rhumerus -43.8289 -22.3383 -64.901
rradius 73.1425 -0 0
rwrist -28.1693 0 0
rhand -28.0232 -25.8237 0.0379907
rfingers 7.12502 -0 0
rthumb -1.40828 -55.7876 0.0366768
107
root 7.40966 16.5776 -26.6904 -6.07448 7.32669 3.89744
lfemur -9.30721 11.2161 -21.3426
ltibia 36.053 -0 0
lfoot -22.6118 -9.39125 -0.577601
ltoes 33.1369 -0 0
rfemur -80.9904 -25.1402 46.1746
rtibia 81.176 -0 0
rfoot 8.57991 18.5872 2.99795
rtoes -22.99 0 0
lowerback 12.6141 -2.14618 -7.87555
upperback 3.68348 -3.87549 -0.777768
thorax -2.56157 -1.87142 4.47201
lowerneck -11.8672 -1.03677 -0.038755
upperneck -0.106956 -1.46776 2.44055
head 2.02262 -0.650866 0.730417
lclavicle -2.25293e-14 2.50405e-15 -1.04236e-29
lhumerus -41.2828 -20.5548 92.2662
lradius 48.7938 -0 0
lwrist 14.5748 0 0
lhand 5.23946 6.1912 0.132735
lfingers 7.12502 -0 0
lthumb 30.5646 33.3426 0.0282248
rclavicle -2.25293e-14 2.50405e-15 -1.04236e-29
rhumerus -43.8618 -22.5121 -64.6927
rradius 73.4546 -0 0
rwrist -28.5421 0 0
rhand -28.0628 -25.8575 0.0371641
rfingers 7.12502 -0 0
rthumb -1.44648 -55.8213 0.0358788
108
root 7.42108 16.5749 -26.6768 -6.21888 7.43592 3.94694
lfemur -9.20283 11.3031 -21.342
ltibia 36.061 -0 0
lfoot -22.4569 -9.52479 -0.564352
ltoes 33.0821 -0 0
rfemur -81.6842 -25.2156 46.5749
rtibia 81.6249 -0 0
rfoot 8.95855 18.8677 2.92815
rtoes -23.428 0 0
lowerback 12.7671 -2.19846 -7.91185
upperback 3.7478 -3.9599 -0.820054
thorax -2.56886 -1.91553 4.45762
lowerneck -11.8873 -1.02503 -0.0589197
upperneck -0.0936712 -1.45115 2.47812
head 2.0312 -0.641361 0.746376
lclavicle -2.16887e-14 2.94909e-15 -1.01853e-29
lhumerus -41.2693 -20.652 92.1965
lradius 48.9304 -0 0
lwrist 14.692 0 0
lhand 5.40327 6.22023 0.129693
lfingers 7.12502 -0 0
lthumb 30.7214 33.3491 0.0275783
rclavicle -2.16887e-14 2.94909e-15 -1.01853e-29
rhumerus -43.8953 -22.6857 -64.4841
rradius 73.7667 -0 0
rwrist -28.9149 0 0
rhand -28.1023 -25.8912 0.0363143
rfingers 7.12502 -0 0
rthumb -1.48468 -55.8551 0.0350584
109
root 7.4325 16.5722 -26.6633 -6.36323 7.54528 3.99616
lfemur -9.09843 11.3902 -21.3413
ltibia 36.069 -0 0
lfoot -22.3021 -9.65828 -0.550741
ltoes 33.0273 -0 0
rfemur -82.3789 -25.2866 46.9764
rtibia 82.0739 -0 0
rfoot 9.33681 19.1478 2.85651
rtoes -23.8661 0 0
lowerback 12.92 -2.25064 -7.9483
upperback 3.81218 -4.04426 -0.86244
thorax -2.57613 -1.95964 4.44322
lowerneck -11.9073 -1.01329 -0.0790884
upperneck -0.0803761 -1.43454 2.51569
head 2.03978 -0.631857 0.762336
lclavicle -2.08481e-14 3.39413e-15 -9.9405e-30
lhumerus -41.2556 -20.7492 92.1266
lradius 49.067 -0 0
lwrist 14.8092 0 0
lhand 5.56708 6.24926 0.126569
lfingers 7.12502 -0 0
lthumb 30.8783 33.3555 0.0269141
rclavicle -2.08481e-14 3.39413e-15 -9.9405e-30
rhumerus -43.9297 -22.8593 -64.2751
rradius 74.0789 -0 0
rwrist -29.2877 0 0
rhand -28.1419 -25.9249 0.0354412
rfingers 7.12502 -0 0
rthumb -1.52287 -55.8888 0.0342155
110
root 7.44392 16.5695 -26.6497 -6.50751 7.65476 4.04513
lfemur -8.99398 11.4772 -21.3405
ltibia 36.077 -0 0
lfoot -22.1473 -9.79174 -0.53677
ltoes 32.9725 -0 0
rfemur -83.0746 -25.3532 47.3791
rtibia 82.5228 -0 0
rfoot 9.7147 19.4274 2.78302
rtoes -24.3041 0 0
lowerback 13.0731 -2.30273 -7.98488
upperback 3.87664 -4.12858 -0.904924
thorax -2.5834 -2.00376 4.42884
lowerneck -11.9273 -1.00156 -0.0992612
upperneck -0.0670702 -1.41795 2.55327
head 2.04837 -0.622356 0.778297
lclavicle -2.00075e-14 3.83917e-15 -9.68913e-30
lhumerus -41.2418 -20.8464 92.0567
lradius 49.2036 -0 0
lwrist 14.9264 0 0
lhand 5.73089 6.27828 0.123362
lfingers 7.12502 -0 0
lthumb 31.0351 33.362 0.0262322
rclavicle -2.00075e-14 3.83917e-15 -9.68913e-30
rhumerus -43.9647 -23.0327 -64.0657
rradius 74.391 -0 0
rwrist -29.6605 0 0
rhand -28.1814 -25.9586 0.0345448
rfingers 7.12502 -0 0
rthumb -1.56107 -55.9225 0.0333501
111
root 7.45534 16.5669 -26.6361 -6.65174 7.76436 4.09382
lfemur -8.88951 11.5643 -21.3394
ltibia 36.085 -0 0
lfoot -21.9925 -9.92516 -0.522439
ltoes 32.9177 -0 0
rfemur -83.7712 -25.4154 47.7828
rtibia 82.9718 -0 0
rfoot 10.0922 19.7064 2.7077
rtoes -24.7422 0 0
lowerback 13.2261 -2.35472 -8.02161
upperback 3.94116 -4.21285 -0.947509
thorax -2.59065 -2.04787 4.41446
lowerneck -11.9473 -0.989842 -0.119438
upperneck -0.0537535 -1.40136 2.59084
head 2.05696 -0.612858 0.79426
lclavicle -1.9167e-14 4.28421e-15 -9.43123e-30
lhumerus -41.2279 -20.9435 91.9868
lradius 49.3402 -0 0
lwrist 15.0435 0 0
lhand 5.8947 6.30728 0.120072
lfingers 7.12502 -0 0
lthumb 31.192 33.3684 0.0255327
rclavicle -1.9167e-14 4.28421e-15 -9.43123e-30
rhumerus -44.0005 -23.206 -63.8559
rradius 74.7032 -0 0
rwrist -30.0333 0 0
rhand -28.221 -25.9923 0.0336251
rfingers 7.12502 -0 0
rthumb -1.59926 -55.9562 0.0324622
112
root 7.46676 16.5642 -26.6225 -6.79592 7.87409 4.14225
lfemur -8.785 11.6513 -21.3382
ltibia 36.093 -0 0
lfoot -21.8378 -10.0585 -0.507747
ltoes 32.863 -0 0
rfemur -84.4685 -25.4732 48.1876
rtibia 83.4207 -0 0
rfoot 10.4693 19.985 2.63054
rtoes -25.1802 0 0
lowerback 13.3792 -2.40661 -8.05847
upperback 4.00575 -4.29707 -0.990193
thorax -2.59789 -2.09199 4.40008
lowerneck -11.9674 -0.978128 -0.139619
upperneck -0.040426 -1.38479 2.62843
head 2.06555 -0.603362 0.810224
lclavicle -1.83264e-14 4.72925e-15 -9.1668e-30
lhumerus -41.2138 -21.0406 91.9167
lradius 49.4768 -0 0
lwrist 15.1607 0 0
lhand 6.0585 6.33628 0.116698
lfingers 7.12502 -0 0
lthumb 31.3488 33.3748 0.0248156
rclavicle -1.83264e-14 4.72925e-15 -9.1668e-30
rhumerus -44.037 -23.3792 -63.6457
rradius 75.0153 -0 0
rwrist -30.406 0 0
rhand -28.2605 -26.026 0.0326821
rfingers 7.12502 -0 0
rthumb -1.63746 -55.9899 0.0315519
113
root 7.47818 16.5615 -26.609 -6.94003 7.98393 4.19042
lfemur -8.68045 11.7383 -21.3369
ltibia 36.101 -0 0
lfoot -21.6831 -10.1919 -0.492695
ltoes 32.8082 -0 0
rfemur -85.1667 -25.5265 48.5933
rtibia 83.8697 -0 0
rfoot 10.846 20.263 2.55155
rtoes -25.6183 0 0
lowerback 13.5324 -2.4584 -8.09548
upperback 4.07041 -4.38124 -1.03298
thorax -2.60512 -2.13611 4.38571
lowerneck -11.9874 -0.966421 -0.159804
upperneck -0.0270877 -1.36822 2.66601
head 2.07414 -0.593869 0.826189
lclavicle -1.74858e-14 5.17429e-15 -8.89585e-30
lhumerus -41.1996 -21.1378 91.8466
lradius 49.6134 -0 0
lwrist 15.2779 0 0
lhand 6.22231 6.36527 0.113242
lfingers 7.12502 -0 0
lthumb 31.5056 33.3813 0.0240808
rclavicle -1.74858e-14 5.17429e-15 -8.89585e-30
rhumerus -44.0742 -23.5522 -63.4351
rradius 75.3274 -0 0
rwrist -30.7788 0 0
rhand -28.3001 -26.0598 0.0317159
rfingers 7.12502 -0 0
rthumb -1.67565 -56.0236 0.0306191
114
root 7.4896 16.5589 -26.5954 -7.0841 8.0939 4.23832
lfemur -8.57588 11.8254 -21.3354
ltibia 36.109 -0 0
lfoot -21.5284 -10.3252 -0.477283
ltoes 32.7534 -0 0
rfemur -85.8655 -25.5753 48.9999
rtibia 84.3186 -0 0
rfoot 11.2223 20.5405 2.47074
rtoes -26.0563 0 0
lowerback 13.6855 -2.51009 -8.13262
upperback 4.13515 -4.46536 -1.07586
thorax -2.61234 -2.18023 4.37135
lowerneck -12.0075 -0.954721 -0.179993
upperneck -0.0137387 -1.35166 2.7036
head 2.08274 -0.584377 0.842155
lclavicle -1.66453e-14 5.61933e-15 -8.61836e-30
lhumerus -41.1853 -21.2348 91.7764
lradius 49.75 -0 0
lwrist 15.3951 0 0
lhand 6.38611 6.39425 0.109704
lfingers 7.12502 -0 0
lthumb 31.6625 33.3877 0.0233284
rclavicle -1.66453e-14 5.61933e-15 -8.61836e-30
rhumerus -44.1122 -23.7251 -63.2241
rradius 75.6396 -0 0
rwrist -31.1516 0 0
rhand -28.3396 -26.0935 0.0307265
rfingers 7.12502 -0 0
rthumb -1.71385 -56.0573 0.0296639
